<svg width="127" height="26" viewBox="0 0 127 26" fill="none" xmlns="http://www.w3.org/2000/svg">
<path d="M45.7916 21.2733C44.9169 21.2733 44.1516 21.164 43.4956 20.9453C42.8396 20.7084 42.2474 20.3622 41.7189 19.9067L41.5002 21H37.6736V2.57732H42.0742V8.64532C42.5662 8.35377 43.122 8.1351 43.7416 7.98932C44.3611 7.84355 44.9989 7.77066 45.6549 7.77066C47.55 7.77066 49.0442 8.2991 50.1376 9.35599C51.2309 10.3947 51.7776 12.0802 51.7776 14.4127C51.7776 16.7451 51.24 18.4762 50.1649 19.606C49.0898 20.7175 47.632 21.2733 45.7916 21.2733ZM44.5342 18.0753C45.5182 18.0753 46.2198 17.7838 46.6389 17.2007C47.0762 16.5993 47.2949 15.6791 47.2949 14.44C47.2949 13.1644 47.0671 12.2715 46.6116 11.7613C46.1742 11.2511 45.4818 10.996 44.5342 10.996C43.4956 10.996 42.6756 11.2693 42.0742 11.816V17.0913C42.7302 17.7473 43.5502 18.0753 44.5342 18.0753Z" fill="white"/>
<path d="M53.4628 21V2.57732H57.8635V9.00066C58.3555 8.63621 58.966 8.34466 59.6948 8.12599C60.4237 7.8891 61.2073 7.77066 62.0455 7.77066C63.7766 7.77066 65.0431 8.18066 65.8448 9.00066C66.6648 9.82066 67.0748 11.078 67.0748 12.7727V21H62.6742V13.0733C62.6742 12.3262 62.5193 11.7978 62.2095 11.488C61.8997 11.1782 61.344 11.0233 60.5422 11.0233C60.0684 11.0233 59.5855 11.1327 59.0935 11.3513C58.6015 11.57 58.1915 11.8433 57.8635 12.1713V21H53.4628Z" fill="white"/>
<path d="M72.817 21.2733C71.997 21.2733 71.2316 21.1275 70.521 20.836C69.8285 20.5444 69.2728 20.098 68.8536 19.4967C68.4345 18.8771 68.225 18.1118 68.225 17.2007C68.225 15.8704 68.6714 14.8318 69.5643 14.0847C70.4754 13.3193 71.833 12.9367 73.637 12.9367H77.245V12.636C77.245 11.98 77.0263 11.5153 76.589 11.242C76.1516 10.9504 75.3316 10.8047 74.129 10.8047C72.653 10.8047 71.2043 11.0324 69.783 11.488V8.64532C70.4208 8.39021 71.1952 8.18066 72.1063 8.01666C73.0356 7.85266 74.0105 7.77066 75.031 7.77066C77.0354 7.77066 78.6025 8.18066 79.7323 9.00066C80.8803 9.82066 81.4543 11.1235 81.4543 12.9093V21H77.6003L77.3816 19.9067C76.9079 20.344 76.2974 20.6811 75.5503 20.918C74.8214 21.1549 73.9103 21.2733 72.817 21.2733ZM74.211 18.5673C74.9034 18.5673 75.5048 18.4489 76.015 18.212C76.5252 17.9751 76.9352 17.6744 77.245 17.31V15.4787H74.129C72.8352 15.4787 72.1883 15.998 72.1883 17.0367C72.1883 17.5104 72.3523 17.884 72.6803 18.1573C73.0083 18.4307 73.5185 18.5673 74.211 18.5673Z" fill="white"/>
<path d="M89.1226 25.8107C88.4848 25.8107 87.8106 25.7833 87.0999 25.7287C86.3893 25.674 85.715 25.592 85.0773 25.4827C84.4395 25.3733 83.8928 25.2458 83.4373 25.1V22.0933C84.1661 22.3302 85.0408 22.5124 86.0613 22.64C87.0817 22.7675 88.0202 22.8313 88.8766 22.8313C89.9882 22.8313 90.8173 22.7675 91.3639 22.64C91.9288 22.5307 92.2113 22.3302 92.2113 22.0387C92.2113 21.7835 92.1019 21.6104 91.8833 21.5193C91.6646 21.4282 91.2364 21.3827 90.5986 21.3827H87.0179C85.8517 21.3827 84.9406 21.1731 84.2846 20.754C83.6468 20.3349 83.3279 19.7244 83.3279 18.9227C83.3279 18.376 83.4919 17.8567 83.8199 17.3647C84.1661 16.8727 84.6673 16.5082 85.3233 16.2713C84.5761 15.8887 84.0113 15.4058 83.6286 14.8227C83.2459 14.2395 83.0546 13.5015 83.0546 12.6087C83.0546 10.9322 83.5921 9.71132 84.6673 8.94599C85.7606 8.16244 87.355 7.77066 89.4506 7.77066C89.8879 7.77066 90.3708 7.8071 90.8993 7.87999C91.4459 7.93466 91.8468 7.98932 92.1019 8.04399H97.0766L96.9673 10.7773H95.0813C95.5368 11.2329 95.7646 11.9071 95.7646 12.8C95.7646 14.0573 95.3546 15.0687 94.5346 15.834C93.7328 16.5993 92.5119 16.982 90.8719 16.982C90.5986 16.982 90.3253 16.9729 90.0519 16.9547C89.7968 16.9182 89.5417 16.8909 89.2866 16.8727C88.8128 16.9273 88.4028 17.0275 88.0566 17.1733C87.7286 17.3191 87.5646 17.5287 87.5646 17.802C87.5646 18.0207 87.6466 18.1664 87.8106 18.2393C87.9928 18.3122 88.257 18.3487 88.6033 18.3487H91.9106C93.2408 18.3487 94.2704 18.6584 94.9993 19.278C95.7464 19.8793 96.1199 20.7631 96.1199 21.9293C96.1199 24.5169 93.7875 25.8107 89.1226 25.8107ZM89.4779 14.5493C90.4437 14.5493 91.1088 14.3853 91.4733 14.0573C91.8377 13.7293 92.0199 13.1827 92.0199 12.4173C92.0199 11.652 91.8286 11.0962 91.4459 10.75C91.0815 10.4038 90.4255 10.2307 89.4779 10.2307C88.585 10.2307 87.9382 10.4038 87.5373 10.75C87.1546 11.078 86.9633 11.6338 86.9633 12.4173C86.9633 13.1462 87.1455 13.6838 87.5099 14.03C87.8744 14.3762 88.5304 14.5493 89.4779 14.5493Z" fill="white"/>
<path d="M103.577 25.8107C102.939 25.8107 102.265 25.7833 101.555 25.7287C100.844 25.674 100.17 25.592 99.5319 25.4827C98.8941 25.3733 98.3474 25.2458 97.8919 25.1V22.0933C98.6208 22.3302 99.4954 22.5124 100.516 22.64C101.536 22.7675 102.475 22.8313 103.331 22.8313C104.443 22.8313 105.272 22.7675 105.819 22.64C106.383 22.5307 106.666 22.3302 106.666 22.0387C106.666 21.7835 106.557 21.6104 106.338 21.5193C106.119 21.4282 105.691 21.3827 105.053 21.3827H101.473C100.306 21.3827 99.3952 21.1731 98.7392 20.754C98.1014 20.3349 97.7826 19.7244 97.7826 18.9227C97.7826 18.376 97.9466 17.8567 98.2746 17.3647C98.6208 16.8727 99.1219 16.5082 99.7779 16.2713C99.0308 15.8887 98.4659 15.4058 98.0832 14.8227C97.7006 14.2395 97.5092 13.5015 97.5092 12.6087C97.5092 10.9322 98.0468 9.71132 99.1219 8.94599C100.215 8.16244 101.81 7.77066 103.905 7.77066C104.343 7.77066 104.825 7.8071 105.354 7.87999C105.901 7.93466 106.301 7.98932 106.557 8.04399H111.531L111.422 10.7773H109.536C109.991 11.2329 110.219 11.9071 110.219 12.8C110.219 14.0573 109.809 15.0687 108.989 15.834C108.187 16.5993 106.967 16.982 105.327 16.982C105.053 16.982 104.78 16.9729 104.507 16.9547C104.251 16.9182 103.996 16.8909 103.741 16.8727C103.267 16.9273 102.857 17.0275 102.511 17.1733C102.183 17.3191 102.019 17.5287 102.019 17.802C102.019 18.0207 102.101 18.1664 102.265 18.2393C102.447 18.3122 102.712 18.3487 103.058 18.3487H106.365C107.695 18.3487 108.725 18.6584 109.454 19.278C110.201 19.8793 110.575 20.7631 110.575 21.9293C110.575 24.5169 108.242 25.8107 103.577 25.8107ZM103.933 14.5493C104.898 14.5493 105.563 14.3853 105.928 14.0573C106.292 13.7293 106.475 13.1827 106.475 12.4173C106.475 11.652 106.283 11.0962 105.901 10.75C105.536 10.4038 104.88 10.2307 103.933 10.2307C103.04 10.2307 102.393 10.4038 101.992 10.75C101.609 11.078 101.418 11.6338 101.418 12.4173C101.418 13.1462 101.6 13.6838 101.965 14.03C102.329 14.3762 102.985 14.5493 103.933 14.5493Z" fill="white"/>
<path d="M119.608 21.2733C117.111 21.2733 115.271 20.6993 114.086 19.5513C112.902 18.3851 112.31 16.7087 112.31 14.522C112.31 12.3535 112.902 10.6862 114.086 9.51999C115.289 8.35377 117.129 7.77066 119.608 7.77066C122.104 7.77066 123.944 8.35377 125.129 9.51999C126.332 10.6862 126.933 12.3535 126.933 14.522C126.933 16.7087 126.341 18.3851 125.156 19.5513C123.972 20.6993 122.122 21.2733 119.608 21.2733ZM119.608 17.8293C120.628 17.8293 121.357 17.5742 121.794 17.064C122.232 16.5538 122.45 15.7064 122.45 14.522C122.45 13.3375 122.232 12.4902 121.794 11.98C121.357 11.4698 120.628 11.2147 119.608 11.2147C118.605 11.2147 117.886 11.4698 117.448 11.98C117.011 12.4902 116.792 13.3375 116.792 14.522C116.792 15.7064 117.011 16.5538 117.448 17.064C117.886 17.5742 118.605 17.8293 119.608 17.8293Z" fill="white"/>
<path d="M16.3239 24.2795C9.84805 17.8037 9.84806 7.3044 16.3239 0.828591C16.822 0.330451 17.6296 0.330452 18.1278 0.828591L27.5794 10.2802C28.8352 11.536 28.8352 13.5721 27.5794 14.8279L18.1278 24.2795C17.6296 24.7777 16.822 24.7777 16.3239 24.2795Z" fill="#4DAA2C"/>
<path d="M2.5033 18.0574C-0.536093 15.018 -0.536093 10.0902 2.5033 7.05076C2.7371 6.81696 3.11616 6.81696 3.34996 7.05076L6.57944 10.2802C7.83524 11.536 7.83524 13.5721 6.57943 14.8279L3.34996 18.0574C3.11616 18.2912 2.7371 18.2912 2.5033 18.0574Z" fill="#E65454"/>
</svg>
